<?xml version="1.0" encoding="UTF-8" standalone="no"?><!DOCTYPE svg PUBLIC "-//W3C//DTD SVG 1.1//EN" "http://www.w3.org/Graphics/SVG/1.1/DTD/svg11.dtd"><svg width="100%" height="100%" viewBox="0 0 607 404" version="1.1" xmlns="http://www.w3.org/2000/svg" xmlns:xlink="http://www.w3.org/1999/xlink" xml:space="preserve" xmlns:serif="http://www.serif.com/" style="fill-rule:evenodd;clip-rule:evenodd;stroke-linejoin:round;stroke-miterlimit:2;"><rect id="Artboard12" x="0" y="0" width="606.36" height="403.734" style="fill:none;"/><path d="M268.022,185.172c-0.061,0.322 -0.074,0.652 -0.039,0.978c0.018,0.16 -0.008,0.323 -0.051,0.486c-4.655,17.571 -6.289,33.104 -18.49,48.268c-8.144,10.121 -20.999,20.101 -42.696,30.344c-10.817,5.107 -28.421,12.147 -41.308,21.402c-8.152,5.855 -14.455,12.534 -15.407,20.311c-1.389,11.344 4.986,20.232 14.435,26.025c13.9,8.521 34.475,10.526 48.199,3.534c0.84,-0.428 1.458,-1.194 1.7,-2.106c1.633,-6.173 6.961,-22.613 19.967,-30.165c16.046,-9.317 35.827,0.081 36.521,0.416c0.671,0.335 1.095,1.021 1.095,1.77c-0.013,0.709 -0.532,21.71 -16.666,31.079c-13.216,7.673 -31.731,3.709 -38.034,2.062c-0.794,-0.207 -1.636,-0.113 -2.364,0.265c-14.898,7.721 -37.346,5.8 -52.486,-3.481c-10.807,-6.625 -17.884,-16.907 -16.295,-29.88c1.07,-8.741 7.864,-16.464 17.027,-23.044c13.085,-9.398 30.942,-16.581 41.927,-21.767c16.577,-7.826 27.833,-15.439 35.694,-23.113c1.184,-1.156 1.334,-3.007 0.352,-4.339c-0.981,-1.332 -2.795,-1.736 -4.249,-0.947c-7.041,3.82 -15.466,6.372 -24.339,8.048c-20.497,3.87 -43.303,3.24 -55.425,4.199c-31.948,2.528 -56.357,13.343 -78.004,26.969c-16.883,10.628 -36.875,29.321 -50.738,48.823c-9.114,12.82 -14.296,26.623 -15.332,38.039c-0.732,8.074 1.638,16.969 5.213,22.883c3.133,5.183 9.964,9.194 16.053,9.124c14.195,-0.163 19.175,-3.995 28.554,-10.884c14.683,-10.785 33.594,-24.322 86.449,-24.929c9.16,-0.105 25.699,2.848 43.823,4.261c17.744,1.384 37.047,1.305 52.227,-4.868c49.451,-20.107 46.01,-61.7 46.01,-84.123c0,-30.925 -3.813,-62.922 -7.822,-93.861c-3.193,-24.636 -4.559,-46.075 -0.434,-59.561c2.865,-9.365 10.776,-14.761 21.041,-14.333c0,-0 0,14.306 0,14.306c-1.735,0.127 -3.563,0.357 -5.211,0.714c-2.241,0.486 -4.175,1.252 -5.402,2.181c-4.49,3.4 -6.431,5.467 -7.63,12.947c-2.076,12.958 -1.035,23.21 1.56,43.237c4.031,31.107 7.855,63.278 7.855,94.37c0,23.452 3.244,66.759 -48.476,87.789c-15.707,6.387 -35.667,6.579 -54.026,5.148c-17.978,-1.403 -34.383,-4.354 -43.47,-4.249c-51.433,0.589 -69.863,13.665 -84.151,24.161c-9.994,7.34 -18.094,13.379 -33.219,13.553c-7.428,0.085 -15.739,-3.964 -19.562,-10.288c-3.863,-6.391 -5.418,-19.861 -4.626,-28.587c1.088,-11.991 7.778,-25.858 17.35,-39.323c14.166,-19.928 34.604,-39.019 51.856,-49.879c22.143,-13.939 47.119,-24.979 79.8,-27.565c12.029,-0.952 34.662,-0.302 55.003,-4.143c13.305,-2.512 23.149,-8.036 30.022,-16.808c4.014,-5.123 6.319,-8.313 9.108,-12.924c13.241,-21.897 15.072,-40.601 15.46,-61.802c0.681,-37.238 -11.464,-58.289 -27.758,-68.927c-12.639,-8.252 -27.254,-11.203 -40.643,-12.414c-13.736,-1.243 -26.223,-0.674 -34.2,-1.862c-12.977,-1.933 -21.644,-6.835 -27.45,-12.989c-12.659,-13.417 -11.623,-33.035 -11.468,-41.758c1.478,-1.11 3.523,-1.407 5.25,-1.086c1.032,0.192 2.012,0.561 2.439,1.374c0.457,0.871 0.447,2.108 0.409,3.571c-0.053,2.077 -0.333,4.498 -0.572,7.114c-0.819,8.928 -0.998,19.782 6.821,28.069c5.311,5.63 13.283,10.023 25.154,11.791c7.924,1.18 20.329,0.6 33.973,1.835c13.991,1.266 29.243,4.418 42.451,13.041c17.124,11.181 30.134,33.15 29.551,72.288c-0.201,13.469 0.131,26.427 -2.306,39.23Zm-31.703,122.499c-7.531,4.374 -11.54,12.147 -12.589,17.878c-0.548,2.991 -0.261,5.516 0.462,7.072c2.342,5.042 8.298,6.267 13.307,6.039c6.337,-0.289 9.898,-1.144 15.796,-4.569c10.513,-6.104 13.569,-17.757 14.385,-23.823c0.207,-1.541 -0.686,-3.02 -2.146,-3.554c-6.011,-2.202 -18.531,-5.246 -29.215,0.957Z" style="fill:url(#_Linear1);"/><path d="M340.277,186.154c0.036,-0.326 0.023,-0.656 -0.039,-0.978c-2.436,-12.803 -2.104,-25.761 -2.305,-39.23c-0.584,-39.139 12.426,-61.108 29.551,-72.288c13.208,-8.623 28.459,-11.776 42.45,-13.042c13.645,-1.234 26.05,-0.654 33.974,-1.834c11.871,-1.769 19.842,-6.161 25.154,-11.791c7.819,-8.287 7.639,-19.141 6.821,-28.069c-0.24,-2.616 -0.52,-5.038 -0.573,-7.114c-0.037,-1.463 -0.048,-2.701 0.409,-3.571c0.428,-0.814 1.408,-1.182 2.439,-1.374c1.727,-0.321 3.773,-0.024 5.251,1.085c0.155,8.724 1.191,28.342 -11.469,41.759c-5.806,6.154 -14.472,11.056 -27.449,12.989c-7.977,1.188 -20.465,0.619 -34.2,1.862c-13.389,1.211 -28.004,4.162 -40.644,12.414c-16.293,10.637 -28.438,31.689 -27.757,68.926c0.388,21.201 2.219,39.906 15.46,61.803c2.788,4.611 5.094,7.8 9.108,12.924c6.873,8.772 16.716,14.295 30.022,16.808c20.34,3.841 42.974,3.191 55.003,4.143c32.68,2.586 57.656,13.626 79.8,27.565c17.252,10.859 37.689,29.951 51.855,49.878c9.573,13.466 16.263,27.332 17.351,39.323c0.792,8.726 -0.763,22.196 -4.627,28.588c-3.822,6.323 -12.133,10.373 -19.562,10.288c-15.125,-0.174 -23.225,-6.213 -33.218,-13.554c-14.288,-10.495 -32.718,-23.571 -84.151,-24.161c-9.088,-0.104 -25.492,2.847 -43.471,4.249c-18.358,1.432 -38.319,1.239 -54.025,-5.147c-51.721,-21.03 -48.477,-64.338 -48.477,-87.79c0,-31.092 3.824,-63.263 7.855,-94.369c2.596,-20.027 3.637,-30.279 1.561,-43.237c-1.199,-7.48 -3.141,-9.548 -7.631,-12.948c-1.226,-0.928 -3.16,-1.695 -5.401,-2.18c-1.648,-0.358 -3.477,-0.587 -5.212,-0.715c0,0 0,-14.306 0,-14.306c10.266,-0.428 18.176,4.969 21.041,14.334c4.126,13.486 2.759,34.924 -0.433,59.56c-4.009,30.94 -7.822,62.936 -7.822,93.861c-0,22.423 -3.441,64.017 46.01,84.124c15.18,6.173 34.482,6.252 52.226,4.868c18.124,-1.414 34.663,-4.366 43.824,-4.261c52.855,0.606 71.766,14.144 86.449,24.929c9.378,6.889 14.359,10.721 28.554,10.884c6.088,0.07 12.92,-3.942 16.052,-9.124c3.575,-5.914 5.946,-14.809 5.213,-22.883c-1.036,-11.416 -6.217,-25.22 -15.331,-38.04c-13.863,-19.502 -33.855,-38.194 -50.739,-48.822c-21.647,-13.627 -46.055,-24.441 -78.003,-26.969c-12.122,-0.96 -34.928,-0.329 -55.425,-4.199c-8.873,-1.676 -17.298,-4.228 -24.339,-8.048c-1.455,-0.789 -3.268,-0.385 -4.25,0.947c-0.981,1.331 -0.831,3.183 0.353,4.339c7.861,7.674 19.116,15.287 35.694,23.113c10.984,5.186 28.841,12.369 41.927,21.766c9.162,6.58 15.957,14.304 17.027,23.045c1.588,12.973 -5.489,23.255 -16.295,29.88c-15.14,9.281 -37.589,11.202 -52.487,3.48c-0.728,-0.377 -1.57,-0.471 -2.363,-0.264c-6.303,1.647 -24.818,5.611 -38.034,-2.063c-16.14,-9.371 -16.654,-30.383 -16.666,-31.066c-0.005,-0.748 0.413,-1.434 1.078,-1.774c0.745,-0.359 20.505,-9.733 36.537,-0.424c13.006,7.552 18.335,23.992 19.968,30.165c0.241,0.911 0.86,1.677 1.7,2.105c13.723,6.993 34.299,4.988 48.198,-3.533c9.45,-5.793 15.825,-14.681 14.436,-26.025c-0.952,-7.778 -7.255,-14.457 -15.408,-20.311c-12.886,-9.255 -30.49,-16.295 -41.308,-21.402c-21.696,-10.244 -34.552,-20.223 -42.695,-30.344c-12.201,-15.165 -13.835,-30.698 -18.491,-48.268c-0.043,-0.163 -0.068,-0.327 -0.051,-0.486Zm31.664,121.521c-10.683,-6.203 -23.204,-3.159 -29.214,-0.958c-1.461,0.535 -2.353,2.013 -2.146,3.555c0.815,6.066 3.871,17.718 14.385,23.823c5.898,3.424 9.458,4.279 15.795,4.568c5.01,0.228 10.966,-0.997 13.308,-6.038c0.723,-1.557 1.01,-4.082 0.462,-7.072c-1.049,-5.732 -5.058,-13.505 -12.59,-17.878Z" style="fill:url(#_Linear2);"/><defs><linearGradient id="_Linear1" x1="0" y1="0" x2="1" y2="0" gradientUnits="userSpaceOnUse" gradientTransform="matrix(9.25146e-13,227.979,-227.979,9.25146e-13,304.13,6.73728)"><stop offset="0" style="stop-color:#888;stop-opacity:1"/><stop offset="0.5" style="stop-color:#73797b;stop-opacity:1"/><stop offset="1" style="stop-color:#344a55;stop-opacity:1"/></linearGradient><linearGradient id="_Linear2" x1="0" y1="0" x2="1" y2="0" gradientUnits="userSpaceOnUse" gradientTransform="matrix(9.25146e-13,227.979,-227.979,9.25146e-13,304.13,6.73728)"><stop offset="0" style="stop-color:#888;stop-opacity:1"/><stop offset="0.5" style="stop-color:#73797b;stop-opacity:1"/><stop offset="1" style="stop-color:#344a55;stop-opacity:1"/></linearGradient></defs></svg>