<?xml version="1.0" encoding="UTF-8" standalone="no"?><!DOCTYPE svg PUBLIC "-//W3C//DTD SVG 1.1//EN" "http://www.w3.org/Graphics/SVG/1.1/DTD/svg11.dtd"><svg width="100%" height="100%" viewBox="0 0 60 25" version="1.1" xmlns="http://www.w3.org/2000/svg" xmlns:xlink="http://www.w3.org/1999/xlink" xml:space="preserve" xmlns:serif="http://www.serif.com/" style="fill-rule:evenodd;clip-rule:evenodd;stroke-linejoin:round;stroke-miterlimit:2;"><rect id="Nav-Symbol" serif:id="Nav Symbol" x="0" y="0" width="60" height="24.966" style="fill:none;"/><clipPath id="_clip1"><rect x="0" y="0" width="60" height="24.966"/></clipPath><g clip-path="url(#_clip1)"><g id="Nav-Liste" serif:id="Nav Liste"><path d="M60,24.242c0,-0.134 -0.108,-0.242 -0.242,-0.242l-59.516,-0c-0.134,-0 -0.242,0.108 -0.242,0.242l0,0.483c0,0.133 0.108,0.241 0.242,0.241l59.516,0c0.134,0 0.242,-0.108 0.242,-0.241l0,-0.483Z" style="fill:url(#_Linear2);"/><path d="M60,12.242c-0,-0.134 -0.108,-0.242 -0.242,-0.242l-59.516,-0c-0.134,-0 -0.242,0.108 -0.242,0.242l0,0.483c0,0.133 0.108,0.241 0.242,0.241l59.516,0c0.134,0 0.242,-0.108 0.242,-0.241l-0,-0.483Z" style="fill:url(#_Linear3);"/><path d="M60,0.242c-0,-0.134 -0.108,-0.242 -0.242,-0.242l-59.516,-0c-0.134,-0 -0.242,0.108 -0.242,0.242l0,0.483c0,0.133 0.108,0.241 0.242,0.241l59.516,0c0.134,0 0.242,-0.108 0.242,-0.241l-0,-0.483Z" style="fill:url(#_Linear4);"/></g></g><defs><linearGradient id="_Linear2" x1="0" y1="0" x2="1" y2="0" gradientUnits="userSpaceOnUse" gradientTransform="matrix(4.56109e-13,24.9665,-24.9665,4.56109e-13,30.0406,3.8991e-13)"><stop offset="0" style="stop-color:#c0c0c0;stop-opacity:1"/><stop offset="1" style="stop-color:#889cad;stop-opacity:1"/></linearGradient><linearGradient id="_Linear3" x1="0" y1="0" x2="1" y2="0" gradientUnits="userSpaceOnUse" gradientTransform="matrix(4.56109e-13,24.9665,-24.9665,4.56109e-13,30.0406,6.23501e-13)"><stop offset="0" style="stop-color:#c0c0c0;stop-opacity:1"/><stop offset="1" style="stop-color:#889cad;stop-opacity:1"/></linearGradient><linearGradient id="_Linear4" x1="0" y1="0" x2="1" y2="0" gradientUnits="userSpaceOnUse" gradientTransform="matrix(4.56109e-13,24.9665,-24.9665,4.56109e-13,30.0406,-2.13163e-14)"><stop offset="0" style="stop-color:#c0c0c0;stop-opacity:1"/><stop offset="1" style="stop-color:#889cad;stop-opacity:1"/></linearGradient></defs></svg>