<!--?xml version="1.0" encoding="UTF-8" standalone="no"?--><svg width="100%" height="100%" viewBox="0 0 8000 4500" version="1.1" xmlns="http://www.w3.org/2000/svg" xmlns:xlink="http://www.w3.org/1999/xlink" xml:space="preserve" xmlns:serif="http://www.serif.com/" style="fill-rule: evenodd; clip-rule: evenodd; stroke-linejoin: round; stroke-miterlimit: 2;"><g><path d="M2533.97,2464.89l-0,-378.809l-141.504,-0l0,-50.684l340.43,0l-0,50.684l-142.09,-0l-0,378.809l-56.836,-0Z" style="fill: none; fill-rule: nonzero; stroke: rgb(0, 0, 0); stroke-width: 15.1px; --darkreader-inline-fill:none; --darkreader-inline-stroke:#e8e6e3;" class="ZWevFBWV_0" data-darkreader-inline-fill="" data-darkreader-inline-stroke=""></path><path d="M2817.57,2464.89l0,-429.493l310.547,0l0,50.684l-253.711,-0l0,131.543l237.598,-0l0,50.391l-237.598,-0l0,146.191l263.672,-0l0,50.684l-320.508,-0Z" style="fill: none; fill-rule: nonzero; stroke: rgb(0, 0, 0); stroke-width: 15.1px; --darkreader-inline-fill:none; --darkreader-inline-stroke:#e8e6e3;" class="ZWevFBWV_1" data-darkreader-inline-fill="" data-darkreader-inline-stroke=""></path><path d="M3222.45,2326.9l53.613,-4.687c2.539,21.484 8.447,39.111 17.725,52.881c9.277,13.769 23.681,24.902 43.213,33.398c19.531,8.496 41.504,12.744 65.918,12.744c21.679,0 40.82,-3.222 57.422,-9.668c16.601,-6.445 28.955,-15.283 37.06,-26.513c8.106,-11.231 12.158,-23.487 12.158,-36.768c0,-13.477 -3.906,-25.244 -11.718,-35.303c-7.813,-10.058 -20.704,-18.506 -38.672,-25.342c-11.524,-4.492 -37.012,-11.474 -76.465,-20.947c-39.453,-9.472 -67.09,-18.408 -82.91,-26.806c-20.508,-10.743 -35.791,-24.073 -45.85,-39.991c-10.059,-15.918 -15.088,-33.74 -15.088,-53.466c0,-21.68 6.153,-41.944 18.457,-60.791c12.305,-18.848 30.274,-33.155 53.906,-42.92c23.633,-9.766 49.903,-14.649 78.809,-14.649c31.836,0 59.912,5.127 84.229,15.381c24.316,10.254 43.017,25.342 56.103,45.264c13.086,19.922 20.117,42.48 21.094,67.675l-54.492,4.102c-2.93,-27.148 -12.842,-47.656 -29.737,-61.523c-16.894,-13.868 -41.845,-20.801 -74.853,-20.801c-34.375,-0 -59.424,6.299 -75.147,18.896c-15.722,12.598 -23.584,27.784 -23.584,45.557c0,15.43 5.567,28.125 16.7,38.086c10.937,9.961 39.501,20.166 85.693,30.615c46.191,10.449 77.881,19.58 95.068,27.393c25,11.523 43.457,26.123 55.371,43.799c11.914,17.675 17.871,38.037 17.871,61.084c0,22.851 -6.543,44.384 -19.628,64.599c-13.086,20.215 -31.885,35.938 -56.397,47.168c-24.512,11.231 -52.1,16.846 -82.764,16.846c-38.867,-0 -71.435,-5.664 -97.705,-16.992c-26.269,-11.329 -46.875,-28.37 -61.816,-51.123c-14.942,-22.754 -22.803,-48.487 -23.584,-77.198Z" style="fill: none; fill-rule: nonzero; stroke: rgb(0, 0, 0); stroke-width: 15.1px; --darkreader-inline-fill:none; --darkreader-inline-stroke:#e8e6e3;" class="ZWevFBWV_2" data-darkreader-inline-fill="" data-darkreader-inline-stroke=""></path><path d="M3776.46,2464.89l-0.001,-378.809l-141.503,-0l-0,-50.684l340.429,0l0,50.684l-142.09,-0l0,378.809l-56.835,-0Z" style="fill: none; fill-rule: nonzero; stroke: rgb(0, 0, 0); stroke-width: 15.1px; --darkreader-inline-fill:none; --darkreader-inline-stroke:#e8e6e3;" class="ZWevFBWV_3" data-darkreader-inline-fill="" data-darkreader-inline-stroke=""></path><path d="M4168.17,2464.89l0,-378.809l-141.503,-0l-0,-50.684l340.429,0l0,50.684l-142.09,-0l0,378.809l-56.836,-0Z" style="fill: none; fill-rule: nonzero; stroke: rgb(0, 0, 0); stroke-width: 15.1px; --darkreader-inline-fill:none; --darkreader-inline-stroke:#e8e6e3;" class="ZWevFBWV_4" data-darkreader-inline-fill="" data-darkreader-inline-stroke=""></path><path d="M4451.77,2464.89l-0,-429.493l310.547,0l-0,50.684l-253.711,-0l-0,131.543l237.597,-0l0,50.391l-237.597,-0l-0,146.191l263.672,-0l-0,50.684l-320.508,-0Z" style="fill: none; fill-rule: nonzero; stroke: rgb(0, 0, 0); stroke-width: 15.1px; --darkreader-inline-fill:none; --darkreader-inline-stroke:#e8e6e3;" class="ZWevFBWV_5" data-darkreader-inline-fill="" data-darkreader-inline-stroke=""></path><path d="M4832.34,2464.89l166.113,-223.829l-146.484,-205.664l67.676,0l77.929,110.157c16.211,22.851 27.735,40.429 34.571,52.734c9.57,-15.625 20.898,-31.934 33.984,-48.926l86.426,-113.965l61.816,0l-150.879,202.442l162.598,227.051l-70.313,-0l-108.105,-153.223c-6.055,-8.789 -12.305,-18.359 -18.75,-28.711c-9.57,15.625 -16.406,26.367 -20.508,32.227l-107.812,149.707l-68.262,-0Z" style="fill: none; fill-rule: nonzero; stroke: rgb(0, 0, 0); stroke-width: 15.1px; --darkreader-inline-fill:none; --darkreader-inline-stroke:#e8e6e3;" class="ZWevFBWV_6" data-darkreader-inline-fill="" data-darkreader-inline-stroke=""></path><path d="M5410.66,2464.89l-0,-378.809l-141.504,-0l0,-50.684l340.43,0l-0,50.684l-142.09,-0l-0,378.809l-56.836,-0Z" style="fill: none; fill-rule: nonzero; stroke: rgb(0, 0, 0); stroke-width: 15.1px; --darkreader-inline-fill:none; --darkreader-inline-stroke:#e8e6e3;" class="ZWevFBWV_7" data-darkreader-inline-fill="" data-darkreader-inline-stroke=""></path></g><style data-made-with="vivus-instant">.ZWevFBWV_0{stroke-dasharray:1540 1542;stroke-dashoffset:1541;animation:ZWevFBWV_draw 3000ms ease 0ms forwards;}.ZWevFBWV_1{stroke-dasharray:2483 2485;stroke-dashoffset:2484;animation:ZWevFBWV_draw 3000ms ease 0ms forwards;}.ZWevFBWV_2{stroke-dasharray:2390 2392;stroke-dashoffset:2391;animation:ZWevFBWV_draw 3000ms ease 0ms forwards;}.ZWevFBWV_3{stroke-dasharray:1540 1542;stroke-dashoffset:1541;animation:ZWevFBWV_draw 3000ms ease 0ms forwards;}.ZWevFBWV_4{stroke-dasharray:1540 1542;stroke-dashoffset:1541;animation:ZWevFBWV_draw 3000ms ease 0ms forwards;}.ZWevFBWV_5{stroke-dasharray:2483 2485;stroke-dashoffset:2484;animation:ZWevFBWV_draw 3000ms ease 0ms forwards;}.ZWevFBWV_6{stroke-dasharray:2177 2179;stroke-dashoffset:2178;animation:ZWevFBWV_draw 3000ms ease 0ms forwards;}.ZWevFBWV_7{stroke-dasharray:1540 1542;stroke-dashoffset:1541;animation:ZWevFBWV_draw 3000ms ease 0ms forwards;}@keyframes ZWevFBWV_draw{100%{stroke-dashoffset:0;}}@keyframes ZWevFBWV_fade{0%{stroke-opacity:1;}94.44444444444444%{stroke-opacity:1;}100%{stroke-opacity:0;}}</style><style class="darkreader darkreader--sync" media="screen"></style></svg>