<?xml version="1.0" encoding="UTF-8" standalone="no"?>
<!DOCTYPE svg PUBLIC "-//W3C//DTD SVG 1.1//EN" "http://www.w3.org/Graphics/SVG/1.1/DTD/svg11.dtd">
<svg width="100%" height="100%" viewBox="0 0 800 800" version="1.1" xmlns="http://www.w3.org/2000/svg" xmlns:xlink="http://www.w3.org/1999/xlink" xml:space="preserve" xmlns:serif="http://www.serif.com/" style="fill-rule:evenodd;clip-rule:evenodd;stroke-linecap:round;stroke-linejoin:round;stroke-miterlimit:1.5;">
    <rect x="0" y="0" width="800" height="800" style="stroke:black;stroke-width:39.08px;"/>
    <g id="Kurven">
    </g>
    <g id="Kurven1" serif:id="Kurven" transform="matrix(-1.29814,0,0,1.29814,1334.45,-300.498)">
        <path d="M480,749.699L480,337.5C480,270 480,270 600,270L830.693,270C877.029,271.531 901.667,269.239 901.667,405C901.667,448.831 904.373,489.368 865.357,531.381C833.843,565.315 752.816,560.709 720,563.292C667.311,567.438 627.049,585.154 591.349,607.5C544.967,636.532 484.329,702.261 480,749.699C478.764,763.245 481.06,784.177 487.092,794.099C492.771,803.44 505.154,809.356 516.19,809.23C575.768,808.551 565.86,749.699 707.565,748.083C737.319,747.744 796.871,778.419 866.201,755.309C950.604,727.175 962.696,685.979 963.225,612.539C963.587,562.266 957.493,505.178 950.938,454.88C942.409,389.436 955.137,339.33 997.158,339.33" style="fill:none;stroke:white;stroke-width:30.11px;stroke-miterlimit:44;"/>
        <path d="M897.868,470.204C885.417,516.931 886.791,554.762 799.844,595.579C770.219,609.486 709.664,632.243 705.542,665.72C699.474,715.001 765.837,717.878 804.575,694.673" style="fill:none;stroke:white;stroke-width:30.11px;stroke-miterlimit:44;"/>
        <g transform="matrix(0.866025,-0.5,0.5,0.866025,-195.345,499.23)">
            <path d="M821.171,641.453C850.33,641.453 869.705,670.363 869.705,670.363C869.705,670.363 852.915,698.813 823.755,698.813C794.596,698.813 768.235,669.218 768.235,669.218C768.235,669.218 792.012,641.453 821.171,641.453Z" style="fill:none;stroke:white;stroke-width:30.11px;stroke-miterlimit:44;"/>
        </g>
    </g>
    <g id="Kurven2" serif:id="Kurven">
    </g>
</svg>
